<?xml version="1.0" encoding="utf-8"?>
<!-- Toilet SVG by Luisa Prado (https://thenounproject.com) -->
<svg version="1.1" xmlns="http://www.w3.org/2000/svg" viewBox="0 0 91.6 142.9">
<g>
	<path fill="#fff" d="M3.6,14.9C1.4,9.8,3.9,3.9,8.9,1.8C14-0.4,19.9,2,22,7.2c2.1,5.1-0.3,11-5.4,13.1C11.6,22.4,5.7,20,3.6,14.9z"/>
</g>
<g>
	<path fill="#fff" d="M91.6,25H70.7v37.5l-8.6,0c0.7-0.3,1.4-0.8,2-1.4c1.2-1.2,1.8-2.8,1.8-4.5c0-0.6-0.3-15.2-9.4-28
		c-7.5-10.6-21.1-15.4-21.7-15.6c-1.2-0.4-3.6-0.9-5.3-0.7c-3.1,0.4-6,2.6-6,6.6v20.5H5.6c-3.1,0-5.6,2.5-5.6,5.6
		c0,3.1,2.5,5.6,5.6,5.6h12.1c-2.7,0.7-4.7,3.1-4.7,6v34.8c0,3.4,3,6.2,6.4,6.2c3.4,0,6.5-2.8,6.5-6.2V63h1.6H34v0
		c-0.6,0.2-1.2,0.5-1.8,1c-1.6,1.4-2.2,3.5-2.3,4.1c-0.1,0.4-0.4,1.9-0.4,3.9c0,14.5,10.7,22.8,15.4,25.8l0.6,0.4h38.2l0-33.6h7.9
		L91.6,25L91.6,25z M34.9,45.2v-13c1.2,1.4,2.3,3.1,3.4,5c1.9,3.4,3.1,6.8,4,9.9l-9.1,1.5C34.5,47.6,34.9,46.4,34.9,45.2z M78.6,93
		H47c-4.2-2.8-12.4-9.7-12.4-21.1c0-1.5,0.3-2.7,0.3-2.7l0-0.2c0-0.2,0.3-0.9,0.5-1.1c0.2-0.1,0.8-0.3,1.2-0.3l0.1,0l41.8,0L78.6,93
		z M86.5,59.4H75.8V30.1h10.7C86.5,30.1,86.5,59.4,86.5,59.4z"/>
</g>
<g>
	<path fill="#000" d="M21.3,107h3v13.1h3.3l9.2-13.1h3.6l-10.1,14.6l10.1,14.7h-3.6l-9.2-13.2h-3.2v13.2h-3V107z"/>
	<path fill="#fff" d="M45,107h3v29.3h-3V107z"/>
	<path fill="#fff" d="M52.1,107h20.3v3h-8.8v26.3h-3V110h-8.6V107z"/>
</g>
</svg>