<?xml version="1.0" encoding="iso-8859-1"?>
<!-- Generator: Adobe Illustrator 18.0.0, SVG Export Plug-In . SVG Version: 6.00 Build 0)  -->
<!DOCTYPE svg PUBLIC "-//W3C//DTD SVG 1.1//EN" "http://www.w3.org/Graphics/SVG/1.1/DTD/svg11.dtd">
<svg xmlns="http://www.w3.org/2000/svg" xmlns:xlink="http://www.w3.org/1999/xlink" version="1.1" id="Capa_1" x="0px" y="0px" viewBox="0 0 395 395" style="enable-background:new 0 0 395 395;" xml:space="preserve" width="512px" height="512px">
<g>
	<path d="M229.412,130.862c-2.405-3.355-6.284-5.346-10.412-5.346h-1.266c-5.524,0-10.424,3.539-12.161,8.782l-27.534,83.09   l-27.662-83.107c-1.743-5.233-6.639-8.765-12.156-8.765h-0.822c-0.051,0-0.104,0.003-0.153,0.003c-0.053,0-0.105-0.003-0.155-0.003   h-0.998c-5.524,0-10.425,3.539-12.163,8.782l-27.533,83.09l-27.661-83.107c-1.742-5.233-6.64-8.765-12.156-8.765h-1.268   c-4.13,0-8.007,1.991-10.414,5.346c-2.407,3.357-3.045,7.669-1.72,11.579l40.125,118.344c1.763,5.201,6.643,8.698,12.135,8.698   h0.53c0.153,0,0.303-0.008,0.455-0.014c0.151,0.006,0.302,0.014,0.454,0.014h0.354c5.5,0,10.386-3.511,12.142-8.721l27.845-82.675   l27.718,82.657c1.751,5.221,6.642,8.739,12.148,8.739h0.527c0.153,0,0.303-0.008,0.456-0.014c0.15,0.006,0.302,0.014,0.454,0.014   h0.355c5.491,0,10.37-3.497,12.134-8.698l40.125-118.344C232.459,138.531,231.818,134.22,229.412,130.862z" fill="#FFFFFF"/>
	<path d="M347.88,232.295c-4.756-4.416-12.063-4.578-17.01-0.378c-8.521,7.234-19.511,11.218-30.943,11.218   c-26.069,0-47.277-20.51-47.277-45.721c0-25.116,21.208-45.548,47.277-45.548c11.542,0,22.522,3.916,30.921,11.027   c5.087,4.306,12.625,3.995,17.339-0.719l0.427-0.427c2.544-2.542,3.899-6.036,3.74-9.628c-0.161-3.592-1.822-6.952-4.58-9.258   c-13.371-11.184-30.366-17.344-47.848-17.344c-40.598,0-73.628,32.253-73.628,71.898c0,39.739,33.03,72.07,73.628,72.07   c17.454,0,34.493-6.207,47.979-17.48c2.822-2.36,4.495-5.817,4.589-9.494c0.098-3.678-1.393-7.22-4.087-9.723L347.88,232.295z" fill="#FFFFFF"/>
	<path d="M313.001,0H81.999C36.785,0,0,36.784,0,81.998v230.993C0,358.211,36.785,395,81.999,395h231.002   C358.216,395,395,358.211,395,312.991V81.998C395,36.784,358.216,0,313.001,0z M380,312.991C380,349.94,349.945,380,313.001,380   H81.999C45.056,380,15,349.94,15,312.991V81.998C15,45.055,45.056,15,81.999,15h231.002C349.945,15,380,45.055,380,81.998V312.991z   " fill="#FFFFFF"/>
</g>
</svg>
